<svg id="Layer_1" data-name="Layer 1" xmlns="http://www.w3.org/2000/svg" width="80.45mm" height="16.2mm" viewBox="0 0 228.04 45.91"><defs><style>.cls-1{fill:#010101;}</style></defs><title>tgt_logo</title><path class="cls-1" d="M311.73,306.12c-2.51-3-3.74-6.82-3.74-11.61,0-9.52,5.73-16.63,16.35-16.63a34.06,34.06,0,0,1,7.25.81l2.37.19.28,7.77-2.13.52c-1.52-6.3-3.08-6.87-8.58-6.87-6.78,0-10.57,4.93-10.57,13.41,0,9.71,4.41,14.26,11.75,14.26a17,17,0,0,0,5.78-.81v-9.81l-3.79-.81v-1.71h11.66v1.71l-3.46.81v10.47c-2.84,1.85-7.15,2.75-11.66,2.75C318,310.57,314.2,309.11,311.73,306.12Z" transform="translate(-307.99 -275.32)"/><path class="cls-1" d="M357.22,310.67l-.43-4.6a9.54,9.54,0,0,1-7.58,4.45c-4.5,0-6.92-3.13-6.92-8.43V291.39l-3.55-1.9,0-.47,8.29-2.65-.43,4.45v9.62c0,4.74,1.61,6.73,5,6.73a7.38,7.38,0,0,0,5.07-1.94V291.39l-3.55-1.9,0-.47,8.29-2.65-.43,4.41v15.87l3.55,1.9,0,.47Z" transform="translate(-307.99 -275.32)"/><path class="cls-1" d="M366.56,309.86V308.3l3.32-.81v-27.1l-3.55-1.89,0-.47,8.29-2.7-.43,4.41v27.77l3.32.81v1.56Z" transform="translate(-307.99 -275.32)"/><path class="cls-1" d="M380.44,309.86V308.3l3.32-.81V290h-4.07l.28-2.27,3.79-.43v-.95a11.34,11.34,0,0,1,2.75-7.82,9.42,9.42,0,0,1,7.44-3.13c2.46,0,3.74,1,3.74,2.51a3.06,3.06,0,0,1-2.84,2.89l-.38,0a2.83,2.83,0,0,0-2.84-2.56c-2.61,0-4.41,2.13-3.84,6.87l.28,2.32h6.54l-.28,2.61h-6.21V307.3l5.54.81v1.75Z" transform="translate(-307.99 -275.32)"/><path class="cls-1" d="M431.13,276.7v5.69h-8.77v27.48H416V282.38H407.2V276.7Z" transform="translate(-307.99 -275.32)"/><path class="cls-1" d="M440.51,286.41a12,12,0,1,1-12.22,12A12,12,0,0,1,440.51,286.41Zm0,18.24a6.28,6.28,0,1,0-6.06-6.25A6,6,0,0,0,440.51,304.65Z" transform="translate(-307.99 -275.32)"/><path class="cls-1" d="M473.59,309.86V308a9.61,9.61,0,0,1-6.4,2.32,11.55,11.55,0,0,1-8.67-3.88,12.33,12.33,0,0,1-2.94-8.05c0-6.78,5-12,11.28-12a10.18,10.18,0,0,1,6.49,2.13V276.22h6.16v33.64Zm-.24-14.93a7.07,7.07,0,0,0-5.69-2.84,6.29,6.29,0,0,0,.14,12.56,6.73,6.73,0,0,0,5.54-2.84Z" transform="translate(-307.99 -275.32)"/><path class="cls-1" d="M506.75,309.86h-5.92V308a9.61,9.61,0,0,1-6.4,2.32,11.55,11.55,0,0,1-8.67-3.88,12.33,12.33,0,0,1-2.94-8.05c0-6.78,5-12,11.28-12a10.53,10.53,0,0,1,6.73,2.32v-1.85h5.92Zm-6.16-14.93a7.07,7.07,0,0,0-5.69-2.84,6.29,6.29,0,0,0,.14,12.56,6.73,6.73,0,0,0,5.54-2.84Z" transform="translate(-307.99 -275.32)"/><path class="cls-1" d="M513.77,321.24l6.35-13.69-10.28-20.66h6.78l6.73,13.79,6.21-13.79H536l-15.83,34.35Z" transform="translate(-307.99 -275.32)"/></svg>